<svg xmlns="http://www.w3.org/2000/svg" width="1200" height="800" viewBox="0 0 1200 800">
  <rect width="1200" height="800" fill="#F1EDE4"/>
  <!-- subtle grid -->
  <line x1="0" y1="200" x2="1200" y2="200" stroke="#0C0C0B" stroke-opacity="0.06" stroke-width="1"/>
  <line x1="0" y1="400" x2="1200" y2="400" stroke="#0C0C0B" stroke-opacity="0.06" stroke-width="1"/>
  <line x1="0" y1="600" x2="1200" y2="600" stroke="#0C0C0B" stroke-opacity="0.06" stroke-width="1"/>
  <line x1="300" y1="0" x2="300" y2="800" stroke="#0C0C0B" stroke-opacity="0.06" stroke-width="1"/>
  <line x1="600" y1="0" x2="600" y2="800" stroke="#0C0C0B" stroke-opacity="0.06" stroke-width="1"/>
  <line x1="900" y1="0" x2="900" y2="800" stroke="#0C0C0B" stroke-opacity="0.06" stroke-width="1"/>
  <!-- crosshair -->
  <line x1="570" y1="370" x2="630" y2="370" stroke="#0C0C0B" stroke-opacity="0.3" stroke-width="1"/>
  <line x1="600" y1="340" x2="600" y2="400" stroke="#0C0C0B" stroke-opacity="0.3" stroke-width="1"/>
  <circle cx="600" cy="370" r="20" fill="none" stroke="#0C0C0B" stroke-opacity="0.2" stroke-width="1"/>
  <!-- label -->
  <text x="60" y="720" font-family="monospace" font-size="22" fill="#0C0C0B" opacity="0.9" letter-spacing="4">GROUND / OVL STRATEGY</text>
  <text x="60" y="752" font-family="monospace" font-size="14" fill="#0C0C0B" opacity="0.4" letter-spacing="3">ALT-01</text>
  <!-- corner marks -->
  <line x1="40" y1="40" x2="80" y2="40" stroke="#0C0C0B" stroke-opacity="0.25" stroke-width="1"/>
  <line x1="40" y1="40" x2="40" y2="80" stroke="#0C0C0B" stroke-opacity="0.25" stroke-width="1"/>
  <line x1="1160" y1="40" x2="1120" y2="40" stroke="#0C0C0B" stroke-opacity="0.25" stroke-width="1"/>
  <line x1="1160" y1="40" x2="1160" y2="80" stroke="#0C0C0B" stroke-opacity="0.25" stroke-width="1"/>
  <line x1="40" y1="760" x2="80" y2="760" stroke="#0C0C0B" stroke-opacity="0.25" stroke-width="1"/>
  <line x1="40" y1="760" x2="40" y2="720" stroke="#0C0C0B" stroke-opacity="0.25" stroke-width="1"/>
  <line x1="1160" y1="760" x2="1120" y2="760" stroke="#0C0C0B" stroke-opacity="0.25" stroke-width="1"/>
  <line x1="1160" y1="760" x2="1160" y2="720" stroke="#0C0C0B" stroke-opacity="0.25" stroke-width="1"/>
  <!-- placeholder text -->
  <text x="600" y="415" font-family="monospace" font-size="11" fill="#0C0C0B" opacity="0.2" text-anchor="middle" letter-spacing="3">REPLACE WITH PHOTO</text>
</svg>